<svg version="1.1" viewBox="0.0 0.0 960.0 540.0" fill="none" stroke="none" stroke-linecap="square" stroke-miterlimit="10" xmlns:xlink="http://www.w3.org/1999/xlink" xmlns="http://www.w3.org/2000/svg"><clipPath id="p.0"><path d="m0 0l960.0 0l0 540.0l-960.0 0l0 -540.0z" clip-rule="nonzero"/></clipPath><g clip-path="url(#p.0)"><path fill="#ffffff" d="m0 0l960.0 0l0 540.0l-960.0 0z" fill-rule="evenodd"/><path fill="#0063ce" fill-opacity="0.5251" d="m54.480316 68.343834l0 0c0 -11.724094 9.504253 -21.228348 21.228348 -21.228348l2.577423 0l0 0l35.708664 0l62.091858 0c5.6301117 0 11.029633 2.2365494 15.010712 6.21764c3.9810944 3.9810867 6.217636 9.3806 6.217636 15.010708l0 53.07086l0 0l0 31.842522l0 0c0 11.724091 -9.504257 21.228348 -21.228348 21.228348l-62.091858 0l-55.09656 28.70285l19.387897 -28.70285l-2.577423 0c-11.724094 0 -21.228348 -9.504257 -21.228348 -21.228348l0 0l0 -31.842522l0 0z" fill-rule="evenodd"/><path fill="#ce0067" fill-opacity="0.5251" d="m237.07086 54.354332l0 0c0 -11.724094 -9.504257 -21.228348 -21.228348 -21.228348l-2.577423 0l0 0l-35.708664 0l-62.091858 0c-5.6301117 0 -11.029625 2.2365532 -15.010712 6.21764c-3.9810867 3.9810867 -6.217636 9.3806 -6.217636 15.010708l0 53.07086l0 0l0 31.842522l0 0c0 11.724091 9.504257 21.228348 21.228348 21.228348l62.091858 0l47.719147 43.4281l-12.010483 -43.4281l2.577423 0c11.724091 0 21.228348 -9.504257 21.228348 -21.228348l0 0l0 -31.842522l0 0z" fill-rule="evenodd"/><path fill="#eeeeee" d="m109.42265 96.593315l28.331726 1.9073486E-4l8.7548065 -26.924217l8.7548065 26.924217l28.331726 -1.9073486E-4l-22.92096 16.639893l8.755173 26.924095l-22.920746 -16.640198l-22.920738 16.640198l8.755165 -26.924095z" fill-rule="evenodd"/></g></svg>